<?xml version="1.0" encoding="UTF-8"?>
<svg version="1.1" xmlns="http://www.w3.org/2000/svg" width="512" height="512">
<path d="M0 0 C0.83982422 -0.0306958 1.67964844 -0.0613916 2.54492188 -0.09301758 C10.0220242 -0.09523411 14.40154794 2.68055686 20 7.39453125 C70.35207906 62.57951075 54.68633332 200.59443051 51.6171875 269.48095703 C45.97106448 384.06291978 45.97106448 384.06291978 18.90234375 411.640625 C12.58159932 417.10101401 5.26517086 417.77170065 -2.8203125 417.28515625 C-34.15829626 414.38472168 -60.75421873 395.24243132 -80.5546875 371.51171875 C-82.67137412 368.99998232 -84.89796176 366.60182739 -87.125 364.1875 C-90.43336914 360.56476095 -93.61012358 356.88307109 -96.6875 353.0625 C-100.82477837 347.93666839 -105.21340703 343.10240759 -109.69140625 338.27734375 C-111.7795281 336.01069545 -113.81006496 333.71667109 -115.8125 331.375 C-127.07067919 318.5085095 -136.55380072 312.16125298 -152.78540039 307.24316406 C-170.86011485 301.65828894 -188.8763 292.18742648 -199.03515625 275.58203125 C-207.08455603 260.29410489 -207.40907323 244.96377288 -207.41796875 228.015625 C-207.42119443 226.54652883 -207.42455941 225.07743296 -207.42805481 223.6083374 C-207.43399887 220.54585019 -207.43589962 217.483391 -207.43530273 214.42089844 C-207.43520137 210.54407414 -207.44884811 206.66743404 -207.46607494 202.79065323 C-207.47732752 199.76014419 -207.47921793 196.72967785 -207.47869301 193.69915009 C-207.4798535 192.27216712 -207.48416287 190.8451823 -207.49202538 189.41822052 C-207.6006105 167.67922286 -205.14618831 148.40930948 -189.86328125 131.92578125 C-177.62291599 120.31615945 -161.8575935 114.16402222 -145.84619141 109.64331055 C-127.31758686 104.35164786 -114.4453535 89.12299729 -103.1015625 74.21484375 C-95.58432065 64.33878009 -87.58369091 54.77564359 -79.1953125 45.62890625 C-77.3193637 43.57591008 -75.49992085 41.48407269 -73.6875 39.375 C-59.5574358 23.28599508 -42.54513286 10.7209098 -22.25 3.5 C-21.35539063 3.1803125 -20.46078125 2.860625 -19.5390625 2.53125 C-13.07759005 0.57651884 -6.70831714 0.14047226 0 0 Z M-50.265625 62.6171875 C-51.97026321 64.54524916 -53.610016 66.51660054 -55.25 68.5 C-56.16975828 69.57213202 -57.09185985 70.64225592 -58.015625 71.7109375 C-62.6721409 77.10120742 -67.28589081 82.51077148 -71.75 88.0625 C-76.09734328 93.42158862 -80.75345848 98.45213129 -85.4609375 103.4921875 C-87.69508374 105.88773026 -89.8655554 108.3271878 -92 110.8125 C-104.26892713 124.84251714 -117.40050954 133.63890053 -135.4375 138.3125 C-148.08006649 141.77879465 -160.62292016 145.90534293 -168.38832092 157.14805603 C-172.78697197 165.32855718 -171.80695906 174.67870817 -171.74609375 183.69140625 C-171.74624894 185.56509965 -171.74774122 187.43879337 -171.75050354 189.31248474 C-171.75188333 193.22694198 -171.73939886 197.14103094 -171.71655273 201.05541992 C-171.68814978 206.05759731 -171.69091647 211.05916437 -171.70364285 216.06138706 C-171.71061712 219.92629658 -171.70279112 223.7910665 -171.69038582 227.65595818 C-171.6858897 229.49983115 -171.68551833 231.3437192 -171.68945122 233.18759346 C-171.69238119 235.76933346 -171.67577273 238.35024929 -171.65405273 240.93188477 C-171.65855438 241.68379593 -171.66305603 242.43570709 -171.66769409 243.21040344 C-171.56577736 250.54902988 -169.55439246 257.19560754 -164.25 262.5 C-155.62862144 269.7764435 -145.43434531 273.628512 -134.77734375 276.890625 C-109.50497641 284.66051647 -92.29904374 302.56592223 -76.46899414 323.11938477 C-68.88827687 332.92341714 -60.55614038 342.13936739 -52.22265625 351.3046875 C-50.37722176 353.35841855 -48.59451435 355.45385193 -46.8125 357.5625 C-36.84473624 368.89571085 -21.70734865 382.11191683 -6.015625 383.73046875 C-3.91618393 383.78352873 -3.91618393 383.78352873 -1.25 383.5 C1.45952575 377.11194006 3.6783549 370.82124271 5.25 364.0625 C5.45866699 363.16837402 5.66733398 362.27424805 5.88232422 361.35302734 C25.34668392 274.61580831 23.770686 172.92182171 -1.25 33.5 C-20.99385721 32.57683322 -37.60895504 49.32277835 -50.265625 62.6171875 Z " fill="#000000" transform="translate(253.25,48.5)"/>
<path d="M0 0 C17.35816159 11.81832278 24.64723318 33.30099865 28.57763672 53.04614258 C30.10267324 61.32624248 30.18014286 69.53477791 30.1875 77.9375 C30.18817474 78.62941437 30.18884949 79.32132874 30.18954468 80.03421021 C30.17310093 90.65272404 29.64346689 100.67804565 26.9375 111 C26.77121094 111.65387695 26.60492188 112.30775391 26.43359375 112.98144531 C22.55303625 127.89284682 16.22447261 141.4351426 5.9375 153 C5.36644531 153.68964844 4.79539062 154.37929688 4.20703125 155.08984375 C1.04974066 158.9019798 -1.23152437 161.53328072 -6.25 162.8125 C-12.25811438 163.10798104 -16.23483177 161.43034905 -20.9375 157.75 C-24.30361545 153.3938506 -25.35595746 149.30879594 -24.875 143.875 C-23.68105373 138.18079474 -20.68311143 134.4315363 -17.1875 129.875 C-3.45013429 111.04598682 -1.48363612 85.94201972 -4.59375 63.34765625 C-7.0431875 50.44817291 -11.33715625 38.14159596 -20.3125 28.3125 C-23.69603008 24.50269842 -25.02651724 20.93516524 -25.08984375 15.76953125 C-24.74882171 10.54927084 -23.66218781 6.96888656 -20.0625 3 C-13.8138667 -1.53803459 -7.2959209 -2.38234152 0 0 Z " fill="#000000" transform="translate(350.0625,175)"/>
</svg>
